<?xml version="1.0" encoding="UTF-8"?>
<svg id="Layer_1" data-name="Layer 1" xmlns="http://www.w3.org/2000/svg" viewBox="0 0 513.2 444.02">
  <defs>
    <style>
      .cls-1 {
        fill: #fff;
        stroke: #000;
        stroke-miterlimit: 10;
      }
    </style>
  </defs>
  <path class="cls-1" d="M217.02.5h114.12c1.02,2.04,2.04,4.07,3.08,6.17,1.07,1.86,2.16,3.7,3.27,5.54.83,1.64,1.17,2.93,1.36,4.74h1.03q.18.49.36.98c.97,2.56,2.05,4.81,3.55,7.1,1.06,1.73,1.92,3.55,2.81,5.38,1.27,2.57,2.64,5.07,4.05,7.56,1.84,3.27,3.57,6.56,5.23,9.93,1.1,2.23,2.26,4.43,3.45,6.62,1.77,3.26,3.37,6.6,4.95,9.96,1.79,3.79,3.66,7.49,5.76,11.11,1.86,3.22,3.5,6.54,5.14,9.88.2.41.41.83.62,1.25.18.36.36.73.54,1.11.65,1.26,1.38,2.46,2.12,3.68.45.84.9,1.68,1.34,2.53.25.48.5.96.76,1.46q.39.76.8,1.54c1.89,3.64,3.79,7.27,5.72,10.89,1.43,2.68,2.8,5.37,4.14,8.1,1.9,3.86,3.97,7.63,6.05,11.4,1.7,3.1,3.32,6.24,4.88,9.42,1.25,2.54,2.62,5,4.01,7.46,2.18,3.85,4.12,7.79,5.98,11.81,1.16,2.5,2.41,4.93,3.77,7.33.85,1.52,1.6,3.07,2.36,4.64,3.25,6.59,6.79,13.04,10.34,19.47,1.9,3.45,3.69,6.95,5.44,10.47.26.53.53,1.06.8,1.6q2.03,4.07,2.77,5.58c1.37,2.77,2.85,5.47,4.34,8.17,3.96,7.23,7.8,14.51,11.47,21.88.17.34.34.68.51,1.02.82,1.65,1.64,3.31,2.45,4.96,1.86,3.77,3.85,7.44,5.96,11.08,1.2,2.07,2.35,4.15,3.48,6.26.2.36.4.72.6,1.09,1.09,2.04,1.77,3.77,2,6.11h1.03c.26.53.52,1.06.79,1.6,1.79,3.6,3.59,7.17,5.54,10.69,1.38,2.52,2.71,5.08,4.04,7.62,1.19,2.27,2.39,4.54,3.61,6.8,1.44,2.69,2.85,5.38,4.2,8.11,2.04,4.11,4.19,8.17,6.34,12.23,1.08,2.05,2.16,4.1,3.24,6.15,1.26,2.39,2.52,4.79,3.78,7.18,1.06,2.01,2.11,4.01,3.17,6.02.72,1.37,1.44,2.74,2.17,4.11.66,1.26,1.33,2.52,1.99,3.79.33.62.65,1.24.98,1.86.46.87.92,1.75,1.38,2.62q.4.76.81,1.53c.61,1.35.89,2.53,1.15,3.98q-1,0-2.02,0c-15.87.03-31.74.07-47.61.11-1.95,0-3.91.01-5.86.02-.39,0-.78,0-1.18,0-6.3.02-12.59.03-18.89.04-6.46.01-12.93.03-19.39.05-3.99.01-7.97.02-11.96.03-3.06,0-6.12.01-9.18.03-1.25,0-2.51,0-3.76,0-1.71,0-3.43,0-5.14.02-.49,0-.99,0-1.49,0-3.31.03-6.11.66-9.22,1.75q-.59.2-1.2.4c-1.06.36-2.12.73-3.17,1.11q-.57.2-1.15.41c-2.37.85-4.7,1.74-7.03,2.69-2.71,1.09-5.46,2.1-8.2,3.11-1,.37-1.99.74-2.98,1.11-1.81.68-3.63,1.35-5.44,2.03-.58.22-1.16.43-1.75.65-3.3,1.23-6.61,2.38-9.97,3.45q-1.36.44-2.8,1.49c-1.22.38-2.43.73-3.66,1.06-5.47,1.55-10.78,3.51-16.11,5.47-1.59.58-3.19,1.17-4.78,1.75q-8.31,3-16.54,6.21c-3.47,1.42-7,2.63-10.55,3.85-4.31,1.49-8.59,3.03-12.87,4.6-.33.12-.67.24-1.01.37-3.64,1.33-7.26,2.69-10.85,4.16-2.76,1.13-5.53,2.02-8.39,2.86-2.16.69-4.22,1.59-6.3,2.49-1.82.74-3.66,1.29-5.56,1.79q-1.2.34-2.6,1.38c-.74.25-1.49.47-2.25.67-3.66,1.06-7.19,2.47-10.72,3.91-3.26,1.32-6.55,2.51-9.87,3.64-3.88,1.33-7.74,2.7-11.6,4.11-6.36,2.31-12.72,4.6-19.12,6.81-.49.17-.98.34-1.48.52-.93.32-1.87.65-2.8.97-.42.15-.84.29-1.27.44q-.56.19-1.14.39-4.18,1.44-8.25,3.17c-2.68,1.24-5.48,2.11-8.28,3.02-2.15.7-4.27,1.44-6.38,2.24-2.46.92-4.96,1.76-7.44,2.61-1.1.38-2.19.75-3.29,1.13-.56.19-1.13.38-1.71.57-1.44.5-2.84,1.05-4.25,1.64-7,2.84-13.3,3.19-20.79,3.11-1.24,0-2.47,0-3.71,0-3.33,0-6.65-.02-9.98-.05-3.13-.02-6.27-.02-9.4-.03-6.2,0-12.4-.03-18.59-.07-6.01-.03-12.03-.06-18.04-.07-.37,0-.74,0-1.13,0-1.87,0-3.73,0-5.6-.01-15.43-.04-30.87-.1-46.3-.18.32-1.69.69-3.12,1.43-4.67.19-.39.37-.78.56-1.18.2-.41.4-.82.61-1.25q.31-.65.63-1.31c1.46-3.03,2.95-6.03,4.47-9.03,1.33-2.65,2.61-5.32,3.87-8,2.07-4.4,4.23-8.76,6.43-13.11,3.13-6.2,6.23-12.41,9.17-18.71,1.36-2.89,2.84-5.7,4.37-8.51.9-1.67,1.7-3.33,2.37-5.11.87-2.31,1.98-4.42,3.15-6.59,2.17-4.03,4.16-8.13,6.12-12.26,1.4-2.95,2.82-5.87,4.29-8.78,1.74-3.45,3.39-6.95,4.98-10.47h1.03c.05-.45.11-.89.16-1.35.37-1.83.96-3.13,1.83-4.79.33-.63.65-1.26.97-1.89.18-.35.36-.7.55-1.07,1.19-2.37,2.32-4.77,3.46-7.17,1.92-4.03,3.86-8.04,5.88-12.02,2.27-4.48,4.48-8.98,6.62-13.53,1.68-3.56,3.44-7.07,5.3-10.54,1.74-3.25,3.3-6.52,4.73-9.91,1.22-2.84,2.63-5.54,4.1-8.25,1.94-3.61,3.69-7.3,5.45-11,2-4.22,4.07-8.4,6.18-12.57,2.52-4.98,4.96-9.98,7.34-15.02,1.46-3.08,2.96-6.13,4.5-9.16,1.51-2.99,2.94-6.02,4.36-9.05,1.2-2.56,2.45-5.1,3.72-7.63,2.23-4.44,4.39-8.9,6.55-13.37,2.3-4.76,4.61-9.5,6.99-14.22,1.9-3.79,3.74-7.62,5.57-11.44,2.52-5.24,5.1-10.45,7.72-15.64,1.83-3.63,3.61-7.28,5.37-10.94,5.83-12.16,11.9-24.19,17.96-36.24,1.73-3.45,3.43-6.9,5.04-10.41,1.3-2.82,2.68-5.5,4.4-8.1.77-1.38,1.27-2.78,1.81-4.26.65-1.69,1.48-3.29,2.31-4.9,1.46-2.87,2.86-5.75,4.21-8.67,1.67-3.6,3.49-7.12,5.35-10.63,3.01-5.66,5.82-11.4,8.56-17.19,1.76-3.73,3.6-7.39,5.55-11.03,2.99-5.58,5.8-11.23,8.36-17.02.68-1.53,1.36-3.05,2.06-4.63Z"/>
  <path d="M197.23,380.11c-17.43,13.8-34.67,27.87-51.93,41.89-4.1,3.28-8.21,6.65-12.41,9.83-1.97,1.38-4.62,3.59-6.18,2.6-.42-.43-.45-1.34-.2-2.55.57-2.6,1.91-5.56,3.03-8.13,41.68-93.92,84.76-187.25,128.03-280.46,3.55-8.02,7.52-8.56,11.41-.14,20.38,43.08,40.28,86.33,60.74,129.41"/>
</svg>